<svg width="12" height="12" viewBox="0 0 12 12" fill="none" xmlns="http://www.w3.org/2000/svg">
<path d="M11.4213 1.99332C11.5169 1.90112 11.5931 1.79081 11.6456 1.66883C11.698 1.54685 11.7257 1.41565 11.7269 1.28287C11.7281 1.15009 11.7029 1.0184 11.6527 0.895478C11.6024 0.772559 11.5282 0.660872 11.4344 0.566936C11.3405 0.472999 11.2289 0.398694 11.1061 0.348355C10.9832 0.298016 10.8515 0.272652 10.7187 0.273743C10.586 0.274834 10.4547 0.302358 10.3327 0.354708C10.2107 0.407059 10.1003 0.483188 10.008 0.578654L6 4.58532L1.99333 0.578654C1.90178 0.480405 1.79138 0.401602 1.66871 0.346946C1.54605 0.29229 1.41363 0.262901 1.27936 0.260532C1.14509 0.258163 1.01172 0.282862 0.8872 0.333157C0.762682 0.383452 0.649571 0.458311 0.554612 0.55327C0.459654 0.648228 0.384795 0.761339 0.3345 0.885856C0.284205 1.01037 0.259505 1.14375 0.261874 1.27802C0.264243 1.41229 0.293633 1.54471 0.348289 1.66737C0.402945 1.79004 0.481748 1.90044 0.579997 1.99199L4.584 5.99999L0.57733 10.0067C0.40069 10.1962 0.304526 10.4469 0.309097 10.706C0.313667 10.9651 0.418617 11.2123 0.601834 11.3955C0.785052 11.5787 1.03223 11.6836 1.2913 11.6882C1.55037 11.6928 1.8011 11.5966 1.99066 11.42L6 7.41332L10.0067 11.4213C10.1962 11.598 10.447 11.6941 10.706 11.6896C10.9651 11.685 11.2123 11.58 11.3955 11.3968C11.5787 11.2136 11.6837 10.9664 11.6882 10.7073C11.6928 10.4483 11.5966 10.1976 11.42 10.008L7.416 5.99999L11.4213 1.99332Z" fill="black" fill-opacity="0.3"/>
</svg>
